<svg id="svg" version="1.1" width="400" height="301" xmlns="http://www.w3.org/2000/svg" xmlns:xlink="http://www.w3.org/1999/xlink" style="display: block;"><g id="svgg"><path id="path0" d="M0.343 1.548 C -2.643 9.329,10.454 34.393,51.526 99.500 C 70.108 128.955,77.809 141.687,81.770 149.500 C 86.790 159.403,92.139 163.782,111.121 173.533 C 134.155 185.365,141.182 192.025,146.910 207.446 C 150.547 217.239,148.504 220.917,134.203 230.319 C 115.930 242.333,113.454 247.882,120.580 260.847 C 136.849 290.445,156.951 300.475,200.000 300.475 C 242.988 300.475,263.174 290.402,279.420 260.847 C 286.546 247.882,284.070 242.333,265.797 230.319 C 251.492 220.915,249.449 217.235,253.097 207.446 C 259.142 191.224,265.389 185.420,290.621 172.583 C 307.720 163.884,313.312 159.207,318.224 149.500 C 321.860 142.316,331.883 125.807,354.653 89.500 C 395.731 23.998,406.369 1.163,396.258 0.187 C 378.019 -1.572,263.036 54.165,210.250 90.353 L 200.000 97.380 189.750 90.353 C 129.805 49.257,4.568 -9.462,0.343 1.548 " stroke="none" fill="#ffffff" fill-rule="evenodd"></path></g></svg>